<svg width="22" height="22" viewBox="0 0 22 22" fill="none" xmlns="http://www.w3.org/2000/svg">
<path d="M8.37891 6.48828H3.22266C2.8667 6.48828 2.57812 6.77686 2.57812 7.13281C2.57812 7.48877 2.8667 7.77734 3.22266 7.77734H8.37891C8.73486 7.77734 9.02344 7.48877 9.02344 7.13281C9.02344 6.77686 8.73486 6.48828 8.37891 6.48828Z" fill="#0E5DAB"/>
<path d="M8.37891 9.06641H3.22266C2.8667 9.06641 2.57812 9.35498 2.57812 9.71094C2.57812 10.0669 2.8667 10.3555 3.22266 10.3555H8.37891C8.73486 10.3555 9.02344 10.0669 9.02344 9.71094C9.02344 9.35498 8.73486 9.06641 8.37891 9.06641Z" fill="#0E5DAB"/>
<path d="M8.37891 11.6445H3.22266C2.8667 11.6445 2.57812 11.9331 2.57812 12.2891C2.57812 12.645 2.8667 12.9336 3.22266 12.9336H8.37891C8.73486 12.9336 9.02344 12.645 9.02344 12.2891C9.02344 11.9331 8.73486 11.6445 8.37891 11.6445Z" fill="#0E5DAB"/>
<path d="M8.37891 14.2227H3.22266C2.8667 14.2227 2.57812 14.5112 2.57812 14.8672C2.57812 15.2231 2.8667 15.5117 3.22266 15.5117H8.37891C8.73486 15.5117 9.02344 15.2231 9.02344 14.8672C9.02344 14.5112 8.73486 14.2227 8.37891 14.2227Z" fill="#0E5DAB"/>
<path d="M8.37891 16.8008H3.22266C2.8667 16.8008 2.57812 17.0894 2.57812 17.4453C2.57812 17.8013 2.8667 18.0898 3.22266 18.0898H8.37891C8.73486 18.0898 9.02344 17.8013 9.02344 17.4453C9.02344 17.0894 8.73486 16.8008 8.37891 16.8008Z" fill="#0E5DAB"/>
<path d="M16.1133 0C13.8711 0 11.9222 1.27879 10.957 3.14523C9.99187 1.27879 8.04293 0 5.80078 0C2.60223 0 0 2.60223 0 5.80078V21.3555C0 21.7114 0.288578 22 0.644531 22H21.2695C21.6255 22 21.9141 21.7114 21.9141 21.3555V5.80078C21.9141 2.60223 19.3118 0 16.1133 0ZM10.3125 20.7109H1.28906V5.80078C1.28906 3.31302 3.31302 1.28906 5.80078 1.28906C8.28854 1.28906 10.3125 3.31302 10.3125 5.80078V20.7109ZM20.625 20.7109H11.6016V5.80078C11.6016 3.31302 13.6255 1.28906 16.1133 1.28906C18.601 1.28906 20.625 3.31302 20.625 5.80078V20.7109Z" fill="#0E5DAB"/>
<path d="M18.6914 6.48828H13.5352C13.1792 6.48828 12.8906 6.77686 12.8906 7.13281C12.8906 7.48877 13.1792 7.77734 13.5352 7.77734H18.6914C19.0474 7.77734 19.3359 7.48877 19.3359 7.13281C19.3359 6.77686 19.0474 6.48828 18.6914 6.48828Z" fill="#0E5DAB"/>
<path d="M18.6914 9.06641H13.5352C13.1792 9.06641 12.8906 9.35498 12.8906 9.71094C12.8906 10.0669 13.1792 10.3555 13.5352 10.3555H18.6914C19.0474 10.3555 19.3359 10.0669 19.3359 9.71094C19.3359 9.35498 19.0474 9.06641 18.6914 9.06641Z" fill="#0E5DAB"/>
<path d="M18.6914 11.6445H13.5352C13.1792 11.6445 12.8906 11.9331 12.8906 12.2891C12.8906 12.645 13.1792 12.9336 13.5352 12.9336H18.6914C19.0474 12.9336 19.3359 12.645 19.3359 12.2891C19.3359 11.9331 19.0474 11.6445 18.6914 11.6445Z" fill="#0E5DAB"/>
<path d="M18.6914 14.2227H13.5352C13.1792 14.2227 12.8906 14.5112 12.8906 14.8672C12.8906 15.2231 13.1792 15.5117 13.5352 15.5117H18.6914C19.0474 15.5117 19.3359 15.2231 19.3359 14.8672C19.3359 14.5112 19.0474 14.2227 18.6914 14.2227Z" fill="#0E5DAB"/>
<path d="M18.6914 16.8008H13.5352C13.1792 16.8008 12.8906 17.0894 12.8906 17.4453C12.8906 17.8013 13.1792 18.0898 13.5352 18.0898H18.6914C19.0474 18.0898 19.3359 17.8013 19.3359 17.4453C19.3359 17.0894 19.0474 16.8008 18.6914 16.8008Z" fill="#0E5DAB"/>
</svg>
