<svg width="22" height="22" viewBox="0 0 22 22" fill="none" xmlns="http://www.w3.org/2000/svg">
<path d="M0.634605 22H21.3654C21.7158 22 22 21.7158 22 21.3654V21.1539C22 19.4042 20.5766 17.9808 18.8269 17.9808H14.1731V16.5C14.1731 15.6727 13.6425 14.9673 12.9039 14.7053V13.1154C12.9039 12.2881 12.3733 11.5827 11.6346 11.3207V10.1539C11.6346 9.80336 11.3505 9.51925 11 9.51925C10.6496 9.51925 10.3654 9.80341 10.3654 10.1539V11.3207C9.6268 11.5827 9.09623 12.2881 9.09623 13.1154V14.7053C8.35759 14.9673 7.82702 15.6727 7.82702 16.5V17.9808H3.17316C1.42351 17.9808 8.58307e-05 19.4042 8.58307e-05 21.1539V21.3654C0 21.7158 0.284153 22 0.634605 22ZM10.3654 13.1154C10.3654 12.7655 10.6501 12.4808 11 12.4808C11.3499 12.4808 11.6346 12.7655 11.6346 13.1154V14.5962H10.3654V13.1154ZM9.09614 16.5C9.09614 16.1501 9.38081 15.8654 9.73075 15.8654H12.2692C12.6191 15.8654 12.9038 16.1501 12.9038 16.5V17.9808H9.09614V16.5ZM3.17307 19.25H18.8269C19.7313 19.25 20.4905 19.8839 20.6834 20.7308H1.3166C1.50953 19.8839 2.26867 19.25 3.17307 19.25Z" fill="#999FC0"/>
<path d="M1.48079 4.01924H6.98079V5.9231C6.98079 6.27359 7.26494 6.5577 7.61539 6.5577H8.32391C8.61115 7.7692 9.702 8.6731 11 8.6731C12.298 8.6731 13.3888 7.7692 13.6761 6.5577H14.3846C14.7351 6.5577 15.0192 6.27355 15.0192 5.9231V4.01924H20.5192C21.3357 4.01924 22 3.35498 22 2.53849V1.48081C22 0.664279 21.3357 2.47955e-05 20.5192 2.47955e-05H1.48075C0.664253 2.47955e-05 0 0.664279 0 1.48081V2.53849C0 3.35498 0.664253 4.01924 1.48079 4.01924ZM13.75 5.28849H13.1154C12.7649 5.28849 12.4808 5.57264 12.4808 5.9231C12.4808 6.73959 11.8165 7.40389 11 7.40389C10.1835 7.40389 9.51921 6.73963 9.51921 5.9231C9.51921 5.5726 9.23506 5.28849 8.88461 5.28849H8.25V4.01928H13.75V5.28849ZM1.26921 1.48081C1.26921 1.36415 1.36409 1.26928 1.48075 1.26928H20.5192C20.6359 1.26928 20.7307 1.36415 20.7307 1.48081V2.53849C20.7307 2.65515 20.6359 2.75002 20.5192 2.75002H1.48075C1.36409 2.75002 1.26921 2.65515 1.26921 2.53849V1.48081Z" fill="#999FC0"/>
</svg>
