<svg width="21" height="22" viewBox="0 0 21 22" fill="none" xmlns="http://www.w3.org/2000/svg">
<path d="M20.2974 0H1.57598C1.19155 0 0.879883 0.288578 0.879883 0.644531V21.3555C0.879883 21.7114 1.19155 22 1.57598 22H20.2974C20.6818 22 20.9935 21.7114 20.9935 21.3555V0.644531C20.9935 0.288578 20.6818 0 20.2974 0ZM19.6013 20.7109H2.27207V1.28906H19.6013V20.7109H19.6013Z" fill="#999FC0"/>
<path d="M4.40068 7.72644H11.8846C12.269 7.72644 12.5807 7.43787 12.5807 7.08191V4.49451C12.5807 4.13855 12.269 3.84998 11.8846 3.84998H4.40068C4.01625 3.84998 3.70459 4.13855 3.70459 4.49451V7.08196C3.70459 7.43791 4.01625 7.72644 4.40068 7.72644ZM5.09678 5.13904H11.1885V6.43742H5.09678V5.13904Z" fill="#999FC0"/>
<path d="M14.6785 5.13904H17.473C17.8574 5.13904 18.1691 4.85046 18.1691 4.49451C18.1691 4.13855 17.8574 3.84998 17.473 3.84998H14.6785C14.2941 3.84998 13.9824 4.13855 13.9824 4.49451C13.9824 4.85046 14.2941 5.13904 14.6785 5.13904Z" fill="#999FC0"/>
<path d="M14.6785 7.72644H17.473C17.8574 7.72644 18.1691 7.43786 18.1691 7.08191C18.1691 6.72596 17.8574 6.43738 17.473 6.43738H14.6785C14.2941 6.43738 13.9824 6.72596 13.9824 7.08191C13.9824 7.43786 14.2941 7.72644 14.6785 7.72644Z" fill="#999FC0"/>
<path d="M5.04745 16.7873H4.40068C4.01625 16.7873 3.70459 17.0759 3.70459 17.4318C3.70459 17.7878 4.01625 18.0764 4.40068 18.0764H17.4735C17.8579 18.0764 18.1696 17.7878 18.1696 17.4318C18.1696 17.0759 17.8579 16.7873 17.4735 16.7873H7.01628L9.00395 14.9469C9.58491 15.3029 10.2565 15.4811 10.9281 15.4811C11.8211 15.4811 12.7141 15.1664 13.3939 14.5369C13.8953 14.0727 14.2111 13.5011 14.3427 12.9014H17.4735C17.8579 12.9014 18.1696 12.6128 18.1696 12.2569C18.1696 11.9009 17.8579 11.6124 17.4735 11.6124H14.3442C14.244 11.151 14.0342 10.7064 13.7153 10.314H17.4735C17.8579 10.314 18.1696 10.0254 18.1696 9.66943C18.1696 9.31348 17.8579 9.0249 17.4735 9.0249H4.40068C4.01625 9.0249 3.70459 9.31348 3.70459 9.66943C3.70459 10.0254 4.01625 10.314 4.40068 10.314H8.14093C7.82203 10.7063 7.61223 11.151 7.51199 11.6124H4.40068C4.01625 11.6124 3.70459 11.9009 3.70459 12.2569C3.70459 12.6128 4.01625 12.9014 4.40068 12.9014H7.51352C7.6009 13.2995 7.76927 13.6852 8.01954 14.0354L5.04745 16.7873ZM12.4095 13.6254C11.5927 14.3818 10.2636 14.3818 9.44671 13.6254C8.62987 12.869 8.62987 11.6384 9.44671 10.882C10.2636 10.1257 11.5926 10.1256 12.4095 10.882C13.2264 11.6383 13.2264 12.869 12.4095 13.6254Z" fill="#999FC0"/>
</svg>
